<svg id="TOP_SHAPE_2_" version="1.1" viewBox="0 0 1600 80" xmlns="http://www.w3.org/2000/svg" xmlns:xlink="http://www.w3.org/1999/xlink"><style type="text/css">.st0{enable-background:new    ;}
	.st1{clip-path:url(#SVGID_2_);fill:#6EB108;}
	.st2{clip-path:url(#SVGID_2_);fill:#6EB109;}
	.st3{clip-path:url(#SVGID_2_);fill:#5F9D00;}
	.st4{clip-path:url(#SVGID_2_);fill:#65A600;}
	.st5{clip-path:url(#SVGID_2_);fill:#64A600;}
	.st6{clip-path:url(#SVGID_2_);fill:#68AB03;}
	.st7{clip-path:url(#SVGID_2_);fill:#68AA02;}
	.st8{clip-path:url(#SVGID_2_);fill:#63A400;}
	.st9{clip-path:url(#SVGID_2_);fill:#6AAD04;}
	.st10{clip-path:url(#SVGID_2_);fill:#6AAC04;}
	.st11{clip-path:url(#SVGID_2_);fill:#69AB03;}
	.st12{clip-path:url(#SVGID_2_);fill:#64A500;}
	.st13{clip-path:url(#SVGID_2_);fill:#67AA02;}
	.st14{clip-path:url(#SVGID_2_);fill:#62A200;}
	.st15{clip-path:url(#SVGID_2_);fill:#62A300;}
	.st16{clip-path:url(#SVGID_2_);fill:#64A400;}
	.st17{clip-path:url(#SVGID_2_);fill:#61A000;}
	.st18{clip-path:url(#SVGID_2_);fill:#6AAD05;}
	.st19{clip-path:url(#SVGID_2_);fill:#67AA01;}</style><defs><path id="SVGID_1_" class="st0" d="m0 0 2 30s182 72 411 29 411-23 574 2 193 11 247-20 228-30 374 16c4.9 1.5 9.5 3 13.8 4.4l-3.8-61.4zm1621.8 61.4.2 3.6s123.3 35.5-.2-3.6z"/></defs><clipPath id="SVGID_2_"><use width="100%" height="100%" xlink:href="#SVGID_1_"/></clipPath><g transform="scale(.99998 1)" stroke="#6eb108"><path class="st1" transform="matrix(.99181 0 0 1 -8.4206 .00078331)" d="m994 0h276l-12 27v2c-2.7 5-5.3 10-8 15-.3 1-.7 2-1 3-.7 1-1.3 2-2 3h-3c-2.3.2-4.6 0-6.9.5-29.6 6.6-59.3 13.2-88.9 20-1.8.4-3.5 1.7-5.2 2.5h-5c-2.2-.8-4.3-1.8-6.5-2.3-9-2.3-18.1-4.5-27.1-6.7-22.1-5.3-44.2-10.7-66.4-16h-1c-1.4-1.8-2.6-3.8-4.2-5.5-7.8-8.3-15.9-16.5-23.6-24.9-5.3-5.7-10.1-11.7-15.2-17.6z" clip-path="url(#SVGID_2_)"/><path class="st1" transform="matrix(.99181 0 0 1 -8.4206 .00078331)" d="m568 0h274c-1.2 3.4-2.2 6.9-3.6 10.2-5 11.3-10.2 22.5-15.3 33.8v2c-1 1.3-2 2.7-3 4h-2c-2.4.1-5-.1-7.3.4-28.8 6.3-57.5 12.6-86.2 19.1-3.3.7-6.4 2.3-9.6 3.5h-6c-2.3-1-4.4-2.2-6.8-2.8-30-7.5-60.1-14.8-90.2-22.2-12.7-13.4-25.4-26.7-38-40.1-2.3-2.4-4-5.3-6-7.9z" clip-path="url(#SVGID_2_)"/><path class="st1" transform="matrix(.99181 0 0 1 -8.4206 .00078331)" d="m143 0h272c-.9 2.5-1.7 5-2.7 7.4-4.4 10.2-8.8 20.4-13.3 30.6-1.3 3-2.7 6-4 9-.7.3-1.3.7-2 1-1.5.3-3 .5-4.4.8-30.8 6.9-61.7 13.7-92.5 20.6-3.1.7-6.1 2.3-9.1 3.6h-4c-1.7-.9-3.4-2.1-5.2-2.6-19.6-4.8-39.1-9.6-58.7-14.3-11.7-2.8-23.4-5.4-35-8.1h-1c-.3-.7-.7-1.3-1-2-1.5-2.3-2.7-5-4.6-7-10.5-11.4-21.2-22.5-31.7-33.9-1.3-1.3-1.9-3.4-2.8-5.1z" clip-path="url(#SVGID_2_)"/></g><path class="st2" transform="matrix(1.0013 0 0 1 -21.924 .00078331)" d="m1423 0 194.45.27655v62.828c-1 .3-15.92-1.0515-16.92-.75148l.1203-1.014s20.176 6.1372 18.576 6.5372c-30 6.6-12.626-4.6758-42.626 2.0242-2.3.5-4.4 2-6.6 3.1h-5c-1.8-.8-3.5-1.9-5.4-2.4-23.3-5.8-46.5-11.5-69.8-17.1-8.2-2-16.5-3.7-24.8-5.5h-1c-.3-.7-.7-1.3-1-2-1.8-2.6-3.2-5.4-5.3-7.7-7-7.6-14.3-14.8-21.2-22.4-4.7-5.1-9-10.6-13.5-15.9z" clip-path="url(#SVGID_2_)" stroke="#6eb109"/><g transform="scale(.99998 1)" stroke="#5f9d00"><path class="st3" transform="matrix(.99181 0 0 1 -8.4206 .00078331)" d="m862.5.061408 29.505-.061408c.8 1.2 1.5 2.6 2.6 3.6 5 4.4 10.1 8.6 15.1 13 6.8 5.8 14 11.2 17.2 20.2 1.9 5.3 4.8 10.2 7.1 15.4 4.1 9.3 8 18.6 12 27.9h-83c.3-5 .7-10 1-15v-40z" clip-path="url(#SVGID_2_)"/><path class="st3" transform="matrix(.99181 0 0 1 -8.4206 .00078331)" d="m519 80h-83c.3-6.3.8-12.6.9-18.9.4-20.4-2.7487-40.739-2.3487-61.039l30.449-.061408c.7 1.1 1.1 2.5 2.1 3.3 9.9 8.7 19.9 17.2 29.9 25.7v1c4.3 9.5 8.6 19 12.8 28.6 3.1 7.1 6.1 14.3 9.2 21.4z" clip-path="url(#SVGID_2_)"/><path class="st3" transform="matrix(.99171 0 0 1 -8.4204 .00078331)" d="m92 80h-83c.3-16.3.7-32.7 1-49v-31h28c2.4 2.7 4.4 5.9 7.2 8.1 14.1 11 26.5 23 32.7 40.5 3.9 10.7 9.4 20.9 14.1 31.4z" clip-path="url(#SVGID_2_)"/></g><path class="st4" transform="matrix(.99179 0 0 1 -8.4205 .00078331)" d="m92 80c-4.7-10.5-10.2-20.7-14-31.5-6.3-17.4-18.7-29.5-32.8-40.4-2.8-2.2-4.8-5.4-7.2-8.1h38c-1.6 7.5-3.3 14.9-4.8 22.4-1.2 6-.5 6.8 5.5 8 1 .2 2 .4 2.9.5 34.4 5.7 68.8 11.4 103.3 17h1v2c-.1 2.1-.6 4.2-.4 6.3.7 7.9 1.6 15.8 2.4 23.7-31.2.1-62.6.1-93.9.1z" clip-path="url(#SVGID_2_)" stroke="#65a600"/><path class="st5" transform="matrix(.99179 0 0 1 -8.4205 .00078331)" d="m946 80c-4-9.3-7.9-18.6-12-27.9-2.3-5.2-5.2-10.1-7.1-15.4-3.3-9-10.4-14.4-17.2-20.2-5.1-4.3-10.2-8.6-15.1-13-1.1-.9-1.7-2.4-2.6-3.6h38c-1.3 6.3-2.6 12.7-4 19-2.3 10-2.1 10.5 8.2 12.3 8.8 1.6 17.7 2.9 26.6 4.3 25.4 4.1 50.9 8.2 76.3 12.4 1 10.7 2 21.3 3 32-31.4.1-62.8.1-94.1.1z" clip-path="url(#SVGID_2_)" stroke="#64a600"/><path class="st3" transform="matrix(.99179 0 0 1 -8.4205 .00078331)" d="m1369 80h-78c.3-15.6.6-31.1.8-46.7 0-1.4-.5-2.9-.8-4.3v-29h26c.9 1.7 1.5 3.8 2.9 5 5.2 4.8 10.6 9.5 16.2 14 4.1 3.3 8.6 6 12.9 9 .7 1.3 1.3 2.7 2 4 .2 3-.2 6.3.8 9 2.1 5.7 5.1 11.1 7.6 16.7 3.2 7.4 6.4 14.9 9.6 22.3z" clip-path="url(#SVGID_2_)"/><path class="st4" transform="matrix(.99179 0 0 1 -8.4205 .00078331)" d="m1351 32c-.7-1.3-1.3-2.7-2-4v-2c2-8.7 4-17.3 6-26h3c-1.7 6.8-3.4 13.5-4.9 20.4-1.8 8.3-1.2 9.1 7.1 10.5 34.6 5.7 69.2 11.4 103.9 17.1.4 3.4.5 6.9 1.1 10.3.8 4.3 1.9 8.5 2.9 12.7v2c-.3 2.3-.7 4.7-1 7h-93c-5.7-12.4-11.3-24.8-17.1-37.1-1.9-3.8-4-7.3-6-10.9z" clip-path="url(#SVGID_2_)"/><path class="st5" transform="matrix(.99179 0 0 1 -8.4205 .00078331)" d="m519 80c-3.1-7.1-6.1-14.3-9.2-21.4-4.2-9.6-8.5-19.1-12.8-28.6 21.9 3.5 43.7 6.9 65.6 10.4 13.5 2.2 26.9 4.5 40.4 6.7 4.3.7 6.9 2.8 7.1 7.5.5 8.5 1.2 16.9 1.8 25.4z" clip-path="url(#SVGID_2_)"/><path class="st6" transform="matrix(.99179 0 0 1 -8.4205 .00078331)" d="m612 80c-.6-8.5-1.4-16.9-1.8-25.4-.3-4.7-2.8-6.8-7.1-7.5-13.5-2.2-26.9-4.5-40.4-6.7-21.9-3.5-43.7-7-65.6-10.4v-1c2-9.7 4-19.3 6-29h65c2 2.6 3.7 5.5 6 7.9 12.6 13.4 25.3 26.8 38 40.1 1.3 10.7 2.7 21.3 4 32z" clip-path="url(#SVGID_2_)" stroke="#68ab03"/><g transform="scale(.99998 1)" stroke="#68aa02"><path class="st7" transform="matrix(.99181 0 0 1 -8.4206 .00078331)" d="m1037 48c-25.4-4.1-50.9-8.2-76.3-12.4-8.9-1.4-17.7-2.8-26.6-4.3-10.2-1.8-10.4-2.3-8.1-12.3 1.5-6.3 2.7-12.7 4-19h64c5.1 5.9 9.9 11.9 15.2 17.6 7.8 8.4 15.8 16.6 23.6 24.9 1.6 1.7 2.8 3.6 4.2 5.5z" clip-path="url(#SVGID_2_)"/><path class="st7" transform="matrix(.99181 0 0 1 -8.4206 .00078331)" d="m1464 48c-34.6-5.7-69.2-11.4-103.9-17.1-8.3-1.4-8.9-2.2-7.1-10.5 1.5-6.8 3.3-13.6 4.9-20.4h62c1.2 2.1 2.2 4.4 3.8 6.2 8.9 9.8 17.9 19.5 27.1 29 3.8 3.9 8.1 7.2 12.1 10.8.4.7.8 1.3 1.1 2z" clip-path="url(#SVGID_2_)"/><path class="st7" transform="matrix(.99181 0 0 1 -8.4206 .00078331)" d="m183 48c-34.4-5.7-68.8-11.4-103.3-17-1-.2-2-.3-2.9-.5-6.1-1.2-6.7-2.1-5.5-8 1.4-7.6 3.1-15 4.7-22.5h63c1.2 2.1 2.2 4.4 3.8 6.2 7.5 8.4 15.1 16.7 22.9 24.8 5.1 5.3 10.8 10 16.3 15 .3.7.7 1.3 1 2z" clip-path="url(#SVGID_2_)"/></g><path class="st8" transform="matrix(.99179 0 0 1 -8.4205 .00078331)" d="m436 0c-.3 20.4 1.4 40.8.9 61.1-.1 6.3-.6 12.6-.9 18.9h-55c1.1-3.3 2.2-6.6 3.4-9.8 2.8-7.1 5.7-14.1 8.6-21.2v-1c.7-.3 1.3-.7 2-1 12.4-5.9 24.9-11.6 37.1-17.9 2-1 3.5-4.7 3.7-7.3.5-7.2-3.0606-14.439-3.0606-21.739z" clip-path="url(#SVGID_2_)"/><path class="st9" transform="matrix(.99179 0 0 1 -8.4205 .00078331)" d="m1468 73v-2c-1-7.7-2-15.3-3-23 8.3 1.8 16.6 3.5 24.8 5.5 23.3 5.6 46.5 11.4 69.8 17.1 1.9.5 3.6 1.6 5.4 2.4-2.7 2.3-5.3 4.7-8 7h-87c-.7-2.3-1.3-4.7-2-7z" clip-path="url(#SVGID_2_)"/><path class="st10" transform="matrix(.99179 0 0 1 -8.4205 .00078331)" d="m1038 48c22.1 5.3 44.3 10.6 66.4 16 9 2.2 18.1 4.4 27.1 6.7 2.2.6 4.4 1.5 6.5 2.3-2.7 2.3-5.3 4.7-8 7h-88c-1.3-10.7-2.7-21.3-4-32z" clip-path="url(#SVGID_2_)" stroke="#6aac04"/><path class="st10" transform="matrix(.99179 0 0 1 -8.4205 .00078331)" d="m616 80c-1.3-10.7-2.7-21.3-4-32 30.1 7.4 60.2 14.7 90.2 22.2 2.4.6 4.5 1.9 6.8 2.8-3 2.3-6 4.7-9 7z" clip-path="url(#SVGID_2_)"/><path class="st10" transform="matrix(.99179 0 0 1 -8.4205 .00078331)" d="m275 80h-87l-3-30c3.5 1.1 6.9 2.4 10.5 3.2 22.8 5.6 45.6 11.2 68.4 16.6 5.6 1.3 11.4 2.1 17.1 3.2-2 2.3-4 4.7-6 7z" clip-path="url(#SVGID_2_)" stroke="#6aac04"/><path class="st11" transform="matrix(.99179 0 0 1 -8.4205 .00078331)" d="m378 80h-86c-1.3-2.3-2.7-4.7-4-7 9-1.8 18-3.5 26.9-5.5 24.7-5.4 49.4-11 74.1-16.5-1.4 3.8-2.8 7.7-4.3 11.5-2.2 5.9-4.5 11.7-6.7 17.5z" clip-path="url(#SVGID_2_)" stroke="#69ab03"/><path class="st11" transform="matrix(.99179 0 0 1 -8.4205 .00078331)" d="m1232 80h-85c-1.3-2.3-2.7-4.7-4-7 9.3-1.8 18.7-3.5 27.9-5.5 24.4-5.4 48.7-11 73.1-16.5-.7 1.5-1.3 3-2 4.6-3.3 8.1-6.7 16.3-10 24.4z" clip-path="url(#SVGID_2_)"/><path class="st11" transform="matrix(.99179 0 0 1 -8.4205 .00078331)" d="m804 80h-83c-1-2.3-2-4.7-3-7 2.5-.4 5-.6 7.4-1.1 30.2-6.6 60.4-13.3 90.6-19.9-4 9.3-8 18.7-12 28z" clip-path="url(#SVGID_2_)"/><path class="st12" transform="matrix(.99179 0 0 1 -8.4205 .00078331)" d="m864 29 2.8377 36c-3.2-.4-9.5377-.1-12.338-1.3-8.1-3.5-15.9-7.7-23.9-11.3-1.9-.9-4.3-.8-6.5-1.2-.1 2.2-.7 4.6-.2 6.7 1.8 7.4 4 14.8 6.1 22.2h-21c.7-2.4 1.2-4.8 2-7.1 2.9-7.7 6-15.3 9-22.9 1-1.3 2-2.7 3-4 2.8-.8 5.9-1.1 8.5-2.3 7.2-3.3 14.2-7.2 21.4-10.5 3.6-1.8 7.4-2.9 11.1-4.3z" clip-path="url(#SVGID_2_)" stroke="#64a500"/><path class="st12" transform="matrix(.99179 0 0 1 -8.4205 .00078331)" d="m1247 50c.7-1 1.3-2 2-3 8.1-3.7 16.1-7.5 24.3-11.1 5.5-2.4 11.2-4.6 16.7-6.9-.3 10.6-.6 21.3-1.1 31.9-.2 4.7-1.8 5.7-6 3.7-8.1-3.9-16.1-7.9-24.3-11.7-2.2-1-4.9-1.1-7.3-1.7.1 2.7-.2 5.4.4 8 1.6 7 3.5 13.8 5.3 20.7h-22c.9-2.5 1.7-5 2.7-7.5 3.1-7.4 6.2-14.9 9.3-22.4z" clip-path="url(#SVGID_2_)"/><g transform="scale(.99998 1)" fill-rule="evenodd"><path class="st13" transform="matrix(.99181 0 0 1 -8.4206 .00078331)" d="m1290 29c-5.6 2.3-11.2 4.5-16.7 6.9-8.1 3.6-16.2 7.4-24.3 11.1.3-1 .7-2 1-3 2.7-5 5.3-10 8-15v-2c4.3-9 8.7-18 13-27h20l3.3697 25.482z" clip-path="url(#SVGID_2_)" stroke="#67aa02"/><path class="st13" transform="matrix(.99181 0 0 1 -8.4206 .00078331)" d="m436 0c0 7.3.3 14.6-.2 21.8-.2 2.6-1.7 6.3-3.7 7.3-12.2 6.3-24.7 12-37.1 17.9 1.3-3 2.7-6 4-9 1.1-1.2 2.6-2.2 3.2-3.6 5.4-11.5 10.6-22.9 15.8-34.4z" clip-path="url(#SVGID_2_)" stroke="#67aa02"/><path class="st7" transform="matrix(.99181 0 0 1 -8.4206 .00078331)" d="m866.38.061408-2.3828 24.939c-13 6.3-26 12.7-39 19 .7-1.5 1.5-3 2.2-4.5 5.9-13.1 11.9-26.3 17.8-39.5z" clip-path="url(#SVGID_2_)" stroke="#68aa02"/></g><path class="st14" transform="matrix(.99179 0 0 1 -8.4205 .00078331)" d="m1290 29h1c.3 1.4.8 2.9.8 4.3-.2 15.6-.5 31.1-.8 46.7h-34c-1.8-6.9-3.8-13.8-5.3-20.7-.6-2.6-.3-5.3-.4-8 2.5.5 5.1.7 7.3 1.7 8.2 3.7 16.2 7.8 24.3 11.7 4.2 2 5.8 1 6-3.7.5-10.8.8-21.4 1.1-32z" clip-path="url(#SVGID_2_)"/><path class="st15" transform="matrix(.99179 0 0 1 -8.4205 .00078331)" d="m830 80c-2.1-7.4-4.3-14.7-6.1-22.2-.5-2.1.1-4.4.2-6.7 2.2.4 4.5.3 6.5 1.2 8 3.7 15.8 7.9 23.9 11.3 2.8 1.2 6.3.9 9.5 1.3-.3 5-.7 10-1 15-11 .1-22 .1-33 .1z" clip-path="url(#SVGID_2_)"/><path class="st5" transform="matrix(.99179 0 0 1 -8.4205 .00078331)" d="m503 0c-2 9.7-4 19.3-6 29-10-8.5-20-17.1-29.9-25.7-.9-.8-1.4-2.2-2.1-3.3z" clip-path="url(#SVGID_2_)" stroke="#64a600"/><path class="st16" transform="matrix(.99179 0 0 1 -8.4205 .00078331)" d="m1355 0c-2 8.7-4 17.3-6 26-5.4-4.6-11-9-16.3-13.7-4.4-3.9-8.5-8.2-12.7-12.3z" clip-path="url(#SVGID_2_)" stroke="#64a400"/><path class="st17" transform="matrix(.99179 0 0 1 -8.4205 .00078331)" d="m1351 32c2 3.6 4.1 7.1 5.9 10.9 5.8 12.3 11.4 24.7 17.1 37.1h-5c-3.2-7.4-6.4-14.9-9.6-22.2-2.5-5.6-5.4-11-7.6-16.7-1-2.8-.6-6.1-.8-9.1z" clip-path="url(#SVGID_2_)"/><path class="st18" transform="matrix(.99179 0 0 1 -8.4205 .00078331)" d="m182 46c-5.5-5-11.1-9.7-16.3-15-7.9-8.1-15.4-16.4-22.9-24.8-1.6-1.8-2.5-4.1-3.8-6.2h4c.9 1.7 1.5 3.8 2.8 5.1 10.5 11.3 21.2 22.5 31.7 33.9 1.8 2 3 4.7 4.5 7z" clip-path="url(#SVGID_2_)"/><path class="st9" transform="matrix(.99179 0 0 1 -8.4205 .00078331)" d="m1463 46c-4.1-3.6-8.4-6.9-12.1-10.8-9.2-9.5-18.2-19.2-27.1-29-1.6-1.8-2.5-4.1-3.8-6.2h3c4.5 5.3 8.8 10.8 13.5 15.9 7 7.6 14.3 14.9 21.2 22.4 2.1 2.3 3.5 5.1 5.3 7.7z" clip-path="url(#SVGID_2_)" stroke="#6aad04"/><path class="st17" transform="matrix(.99179 0 0 1 -8.4205 .00078331)" d="m1320 0c4.2 4.1 8.3 8.4 12.7 12.3 5.3 4.7 10.9 9.2 16.3 13.7v2c-4.3-3-8.8-5.8-12.9-9-5.6-4.4-10.9-9.1-16.2-14-1.4-1.2-1.9-3.3-2.9-5z" clip-path="url(#SVGID_2_)" stroke="#61a000"/><path class="st11" transform="matrix(.99179 0 0 1 -8.4205 .00078331)" d="m845 0c-5.9 13.2-11.9 26.4-17.8 39.5-.7 1.5-1.5 3-2.2 4.5h-2c5.1-11.3 10.3-22.5 15.3-33.8 1.5-3.3 2.4-6.8 3.6-10.2z" clip-path="url(#SVGID_2_)"/><path class="st6" transform="matrix(.99179 0 0 1 -8.4205 .00078331)" d="m718 73c1 2.3 2 4.7 3 7h-21c3-2.3 6-4.7 9-7h6z" clip-path="url(#SVGID_2_)"/><path class="st13" transform="matrix(.99179 0 0 1 -8.4205 .00078331)" d="m1247 50c-3.1 7.5-6.2 15-9.2 22.6-1 2.5-1.8 5-2.7 7.5h-3c3.3-8.1 6.7-16.3 10-24.4.6-1.5 1.3-3.1 2-4.6v-1c.9-.1 1.9-.1 2.9-.1z" clip-path="url(#SVGID_2_)"/><path class="st11" transform="matrix(.99179 0 0 1 -8.4205 .00078331)" d="m418 0c-5.2 11.5-10.4 22.9-15.8 34.4-.7 1.4-2.1 2.4-3.2 3.6 4.4-10.2 8.9-20.4 13.3-30.6 1-2.4 1.8-5 2.7-7.4z" clip-path="url(#SVGID_2_)"/><path class="st13" transform="matrix(.99179 0 0 1 -8.4205 .00078331)" d="m378 80c2.2-5.8 4.5-11.6 6.7-17.5 1.5-3.8 2.9-7.7 4.3-11.5 1.3-.7 2.7-1.3 4-2-2.9 7.1-5.8 14.1-8.6 21.2-1.3 3.2-2.3 6.5-3.4 9.8z" clip-path="url(#SVGID_2_)" stroke="#69ab03"/><path class="st19" transform="matrix(.99179 0 0 1 -8.4205 .00078331)" d="m288 73c1.3 2.3 2.7 4.7 4 7h-17c2-2.3 4-4.7 6-7h6z" clip-path="url(#SVGID_2_)"/><path class="st19" transform="matrix(.99179 0 0 1 -8.4205 .00078331)" d="m1143 73c1.3 2.3 2.7 4.7 4 7h-17c2.7-2.3 5.3-4.7 8-7z" clip-path="url(#SVGID_2_)"/><path class="st7" transform="matrix(.99179 0 0 1 -8.4205 .00078331)" d="m1038 48c1.3 10.7 2.7 21.3 4 32h-2c-1-10.7-2-21.3-3-32z" clip-path="url(#SVGID_2_)"/><path class="st19" transform="matrix(.99179 0 0 1 -8.4205 .00078331)" d="m1570 73c1 2.3 2 4.7 3 7h-16c2.7-2.3 5.3-4.7 8-7z" clip-path="url(#SVGID_2_)"/><path class="st19" transform="matrix(.99179 0 0 1 -8.4205 .00078331)" d="m820 50c-3 7.6-6 15.3-9 22.9-.9 2.3-1.4 4.7-2 7.1h-3c1.3-3.2 2.6-6.4 3.8-9.6 2.4-6.1 4.8-12.2 7.2-18.4.3-.7.7-1.3 1-2z" clip-path="url(#SVGID_2_)"/><path class="st7" transform="matrix(.99179 0 0 1 -8.4205 .00078331)" d="m185 50 3 30h-2c-.8-7.9-1.7-15.8-2.4-23.7-.2-2.1.2-4.2.4-6.3z" clip-path="url(#SVGID_2_)" stroke="#68ab02"/><path class="st6" transform="matrix(.99179 0 0 1 -8.4205 .00078331)" d="m817 52c-2.4 6.1-4.8 12.2-7.2 18.4-1.3 3.2-2.5 6.4-3.8 9.6h-2c4-9.3 8-18.7 12-28z" clip-path="url(#SVGID_2_)"/><path class="st10" transform="matrix(.99179 0 0 1 -8.4205 .00078331)" d="m1271 0c-4.3 9-8.7 18-13 27l12-27z" clip-path="url(#SVGID_2_)"/><path class="st7" transform="matrix(.99179 0 0 1 -8.4205 .00078331)" d="m1468 73c.7 2.3 1.3 4.7 2 7h-3c.3-2.3.7-4.7 1-7z" clip-path="url(#SVGID_2_)"/><path class="st10" transform="matrix(.99179 0 0 1 -8.4205 .00078331)" d="m1244 50v1c-24.4 5.5-48.7 11.1-73.1 16.5-9.3 2-18.6 3.7-27.9 5.5 1.7-.9 3.4-2.1 5.2-2.5 29.6-6.7 59.3-13.4 88.9-20 2.2-.5 4.6-.3 6.9-.5z" clip-path="url(#SVGID_2_)" stroke="#69ab03"/><path class="st10" transform="matrix(.99179 0 0 1 -8.4205 .00078331)" d="m1258 29c-2.7 5-5.3 10-8 15 2.7-5 5.3-10 8-15z" clip-path="url(#SVGID_2_)"/><path class="st10" transform="matrix(.99179 0 0 1 -8.4205 .00078331)" d="m817 52h-1c-30.2 6.6-60.4 13.3-90.6 19.9-2.4.5-4.9.8-7.4 1.1h-3c3.2-1.2 6.3-2.8 9.6-3.5 28.7-6.5 57.3-12.8 86.1-19.1 2.4-.5 4.9-.3 7.3-.4-.3.7-.7 1.3-1 2z" clip-path="url(#SVGID_2_)"/><path class="st19" transform="matrix(.99179 0 0 1 -8.4205 .00078331)" d="m823 44h2c13-6.3 26-12.7 39-19v4c-3.7 1.4-7.5 2.5-11.1 4.1-7.2 3.4-14.2 7.2-21.4 10.5-2.6 1.2-5.7 1.6-8.5 2.3z" clip-path="url(#SVGID_2_)"/><path class="st18" transform="matrix(.99179 0 0 1 -8.4205 .00078331)" d="m185 50h-1v-2c11.7 2.7 23.4 5.3 35 8.1 19.6 4.7 39.2 9.5 58.7 14.3 1.8.5 3.5 1.7 5.2 2.6h-2c-5.7-1-11.5-1.8-17.1-3.2-22.8-5.4-45.6-11-68.4-16.6-3.5-.8-6.9-2.1-10.4-3.2z" clip-path="url(#SVGID_2_)" stroke="#6aac04"/><path class="st18" transform="matrix(.99179 0 0 1 -8.4205 .00078331)" d="m288 73h-1c3-1.2 6-2.8 9.1-3.6 30.8-7 61.6-13.8 92.5-20.6 1.5-.3 2.9-.5 4.4-.8v1c-1.3.7-2.7 1.3-4 2-24.7 5.5-49.4 11.1-74.1 16.5-9 2-17.9 3.7-26.9 5.5z" clip-path="url(#SVGID_2_)"/><path class="st7" transform="matrix(.99179 0 0 1 -8.4205 .00078331)" d="m1465 48c1 7.7 2 15.3 3 23-1-4.2-2.1-8.4-2.9-12.7-.6-3.4-.8-6.9-1.1-10.3z" clip-path="url(#SVGID_2_)"/><path d="m.00063901 0 1.4961.00078331-.5097 32.739-.98641-.35114z" fill="#5f9d00" stroke-width=".99999"/><path d="m1596.1.0042493 3.9242.0037913v60.93l-3.1189-1.25z" fill="#6eb109" stroke-width=".99999"/></svg>
