<svg version="1.1" viewBox="0 0 170 40" xmlns="http://www.w3.org/2000/svg"><path d="m130.39 39.216c.002-.30356.0583-.75955.12449-1.0133.20585-.78856.47936-1.1395 2.006-2.5735 6.3712-5.9848 10.323-9.5143 23.758-21.218 4.1135-3.5835 7.4791-6.5344 7.4791-6.5576 0-.080629-5.8679-.65552-9.2893-.9101-1.0411-.077466-4.9219-.33059-8.624-.56249-9.4184-.58998-13.802-.94101-18.893-1.5129-3.5313-.39668-8.3669-1.0858-8.6384-1.2311-.19841-.10618-.35118-.47821-.38879-.94677-.0322-.40094-.0202-.45014.1512-.62157.18524-.18524.19005-.18595.97311-.144.43282.023189 1.828.089125 3.1005.14653 4.0363.18208 8.9177.48655 13.987.87241 3.5764.27225 33.819 2.818 33.856 2.8499.0161.013701.0161.035774 0 .04905s-2.7739 2.467-6.1286 5.4528c-12.551 11.171-19.089 16.81-26.851 23.159-1.5217 1.2446-6.0212 4.8562-6.5376 5.2474-.0684.05181-.0868-.05485-.0836-.48552zm-31.179-10.509c-.34519-.17202-.3559-.18661-.39874-.54334-.02422-.20162-.04431-.61062-.04465-.9089l-.000701-.54233.42242-.21324c.58175-.29366.99203-.38481 2.7324-.60703 1.9428-.24806 3.6046-.26352 4.4168-.04108.2892.0792.70722.22435.92893.32254l.40312.17854v.66532c0 .92022-.0325.98304-.61026 1.1788-.46122.15631-.54389.16089-2.5926.14364l-2.1162-.01782-.88432.28081c-1.1101.35249-1.7029.37983-2.2563.10405zm-11.661-.14548c-.0964-.01778-.68005-.11157-1.297-.20843-.61695-.09686-1.2952-.20527-1.5073-.24091-.28293-.04755-.53493-.03678-.94646.04044-1.2528.2351-1.4372.25655-1.8074.21029-.24411-.0305-.52391-.13123-.76153-.27415l-.37563-.22594.01119-.62208c.0062-.34214.03151-.75754.05633-.92311.04335-.28907.06053-.30679.43245-.44594.57804-.21627 1.1801-.2801 2.6549-.28145 2.6251-.0024 3.9955.20516 5.0635.76697.84563.44483.79201.3559.67946 1.1269-.11935.81757-.1751.94881-.42652 1.0041-.27208.05988-1.5603.11301-1.776.07325zm29.629-1.6036c-.14943-.05326-.30127-.12643-.33743-.16259-.0362-.03616-.13415-.43684-.21774-.89039l-.15199-.82464.23663-.19754c.54807-.45755 1.608-.82954 4.2068-1.4764 1.5419-.38381 2.8333-.43395 3.8617-.14996l.4557.12585.0832.52483c.0458.28866.0852.65845.0876.82178.004.29442.00078.29879-.42371.51306-.57701.29128-1.2764.46061-2.4295.5882-2.0437.22615-2.3069.2834-3.0334.65978-1.0775.55822-1.7226.68738-2.3379.46806zm-46.806-.29296c-.60883-.09144-1.1018-.19953-1.7176-.37659-1.9888-.57184-1.9981-.57333-3.2348-.52096-1.3161.05573-1.6431-.01298-2.1336-.44822l-.29414-.26103.11453-.66368c.18306-1.0608.18655-1.0685.53006-1.168.62509-.18098 1.2564-.17894 2.9148.0094 1.9112.21709 2.5715.33109 3.3078.57109.67419.21975 1.5226.66462 1.9197 1.0067l.29781.25649-.12592.52214c-.06925.28718-.17058.63626-.22516.77574-.09223.23568-.12497.25669-.46342.29735-.37566.04513-.58721.04502-.88998-.00042zm-17.632-3.774c-.26992-.0501-.74314-.18621-1.0516-.30247-.30848-.11626-1.0341-.39192-1.6125-.61258l-1.0516-.4012-1.1568-.04583c-1.3107-.05192-1.5753-.13266-2.0594-.62841l-.26738-.27382.18661-.72642c.10263-.39953.22959-.79291.28212-.87419.22326-.34542 1.1885-.31941 3.1784.08565 2.9453.59954 3.9843 1.0126 5.0268 1.9985l.37167.35151-.15981.46987c-.0879.25843-.22791.60334-.31113.76648-.14966.29335-.15535.29654-.51796.29029-.20165-.0035-.58748-.04732-.8574-.09742zm81.697-.50476c-.12634-.03328-.68713-1.3634-.68713-1.6297 0-.17342.42884-.60512.93345-.93969.45991-.30492 3.1397-1.5776 3.9943-1.897.35519-.13274.88898-.29135 1.1862-.35246.66307-.13635 2.0396-.15145 2.1408-.02349.10827.13685.43859 1.1886.43859 1.3964 0 .37687-1.2052 1.0449-2.629 1.4572-1.9147.55447-2.1971.67254-2.9445 1.2311-.83378.6231-1.2707.80855-1.878.79721-.23955-.0045-.48914-.02225-.55465-.03951zm-98.488-4.698c-.44221-.07394-1.198-.37465-2.5337-1.0081-1.4798-.70178-1.9026-.83542-2.6497-.83751-.8264-.0023-1.6429-.32714-2.0003-.7958-.22685-.29742-.22341-.40115.03681-1.1088.35569-.96722.29085-.92147 1.2474-.88018.74878.03233.94524.07346 2.3636.49487 1.7893.53161 2.237.69262 3.0178 1.0853.64712.32545 1.5034.97811 1.8387 1.4016l.22709.28673-.70771 1.4103-.33237-.0095c-.1828-.0053-.41124-.02274-.50764-.03885zm115-2.9432c-.20437-.04184-.36821-.23358-.82783-.96878-.42902-.68626-.44143-.77886-.17491-1.3055.17826-.35225 1.3384-1.3752 1.7985-1.5859.3258-.14916.45818-.16988.94407-.14782.5599.02543.56739.02826.80722.30518.13315.15373.36512.4635.5155.68837l.2734.40886-.13712.26879c-.172.33716-.34276.45711-1.275.89566-.74187.34899-.75111.35636-.95632.76254-.29878.59137-.5461.76484-.96749.67857zm-131.86-3.659c-.59178-.17429-.91493-.32845-2.0332-.96989-1.7394-.99772-1.9552-1.0884-2.8043-1.1779-.99218-.1046-1.7468-.46158-2.0654-.97707-.19069-.30854-.1727-.40359.24298-1.284l.30618-.6485.37251.0005608c.69283.0009885 1.2523.14235 2.8129.71069 1.7177.62558 2.7014 1.0814 3.3822 1.5673.51254.36574 1.0909.92983 1.346 1.3127l.17393.26109-.37725.65031c-.3709.63936-.38195.65055-.65662.66448-.15365.0078-.46866-.04158-.70001-.10972zm-15.969-7.4715c-.14553-.051923-.36637-.17694-.49075-.27781-.12439-.10087-.43056-.33305-.68039-.51596l-.45423-.33256h-.57778c-.66221 0-.83669-.10287-.90674-.53459-.032991-.2033.027384-.37991.34932-1.0218.42769-.8528.52468-.9324 1.1359-.9324.2804 0 1.5157.38462 1.94.60404.52409.27102 1.1058 1.0934 1.106 1.5635 5.88e-5.17996-.38936.94013-.67637 1.3203-.18959.25115-.33038.27521-.74495.12729z" fill="#fff" stroke-width=".070108"/></svg>
