<svg enable-background="new 0 0 1599 106" version="1.1" viewBox="0 0 1599 106" xmlns="http://www.w3.org/2000/svg"><style type="text/css">.st0{fill:#61A000;}
	.st1{fill:#61A100;}
	.st2{fill:#5D9B00;}
	.st3{fill:#66A901;}
	.st4{fill:#5E9B00;}
	.st5{fill:#609E00;}
	.st6{fill:#65A700;}
	.st7{fill:#66A800;}
	.st8{fill:#68AB03;}
	.st9{fill:#64A500;}
	.st10{fill:#67AA02;}
	.st11{fill:#69AC04;}
	.st12{fill:#62A200;}
	.st13{fill:#5C9800;}</style><g opacity=".3"><rect x="5e-7" y="5e-7" width="1600" height="106" fill="#68aa02" fill-rule="evenodd" stroke-width="0" style="paint-order:fill markers stroke"/><g stroke-width=".99338"><g stroke="#609e00"><path class="st0" d="m849.69 104.84h-250.58c-4.7939-7.0152-11.885-11.264-18.976-15.71h-.99873c-2.9962-5.1379-7.89-8.0033-12.984-10.77h-.99873c-.69911-1.9761-1.9975-3.2606-3.9949-3.9522h-.99873c-4.9937-6.62-11.485-11.264-18.976-14.722h-.99873c-.29963-.29642-.69912-.69164-.99874-.98806-.6991-.69164-1.2984-1.2845-1.9974-1.9761v-.98806c8.2895.39522 16.579-.88925 24.769-1.3833 21.173-1.2845 42.346-6.62 63.519.29642.19976.0988.29963 0 .49937 0h3.9949c4.3944 3.4582 9.7876 3.8534 14.981 4.8415h1.9975c9.3881 3.8534 19.176 6.7188 29.363 6.7188 28.863 0 57.727-.49403 86.59-.88925 1.9974 0 3.895-.59283 5.8925-.88925h5.9924c1.2984-.29642 2.6966-.69164 3.9949-.98806h2.9962c1.2984-.29642 2.6966-.69164 3.9949-.98806h3.9949c1.6978-.29642 3.2958-.69164 4.9937-.98806h4.9937c.99874-.29642 1.9975-.69164 2.9962-.98806h2.9962c1.6978-.29642 3.2958-.69164 4.9936-.98806h3.9949c1.2984-.29642 2.6966-.69164 3.9949-.98806 1.9974-.29642 3.9949-.69164 5.9924-.98806h4.9937c6.8912-.09881 11.785-4.8415 17.478-7.5092 4.0948-1.8773 5.493-5.1379 5.493-9.4854-.0998-13.339 0-26.678 0-40.016h1.9975c0 14.821.0998 29.642-.0998 44.561-.0998 8.7937-1.7977 10.473-10.387 11.461-4.2946.49403-5.7926 2.6678-4.7939 6.62.69912 2.8654 1.4981 5.6319 2.2971 8.4973 2.7964 11.363 6.0923 22.133 7.9899 33.199z"/><path class="st1" d="m333.55 104.84h-160.7c-.79897-2.2725-2.4968-3.7546-4.3944-5.2367-11.086-8.5961-21.972-17.489-33.258-25.788-6.9911-5.1379-12.984-11.758-21.273-15.117-.69912-.69164-1.2984-1.2845-1.9975-1.9761 17.078-1.4821 34.057-3.1618 51.135-4.3475 7.1908-.49403 14.482-2.4701 21.772-.59284 17.678 4.4463 35.355 8.9913 53.033 13.536 1.8976.49403 3.8951.98806 5.8925.29642h3.9949c2.4968 1.0869 5.1934.98806 7.89.98806 21.772 0 43.445.0988 65.217-.09881 7.2907-.09881 14.581-.49403 21.772-1.8773h3.9949c1.6978-.29642 3.2958-.69164 4.9937-.98806h2.9962c1.6978-.29642 3.2958-.69164 4.9936-.98806h3.9949c1.2984-.29642 2.6966-.69164 3.9949-.98806h4.9936c.99873-.29642 1.9975-.69164 2.9962-.98806h2.9962c1.6978-.29642 3.2958-.69164 4.9937-.98806h3.9949c1.6978-.29642 3.2958-.69164 4.9937-.98806 1.6978-.29642 3.2958-.69164 4.9937-.98806h4.9937c2.2971-.29642 4.694-.69164 6.9911-.98806-.99874 2.6678-3.0961 3.557-5.7926 3.8534-18.976 1.7785-37.652 5.5331-56.828 6.0272-3.2958.0988-5.9924 1.2845-6.7914 4.6439-2.397 11.264-5.8925 22.133-6.5916 33.594z"/><path class="st1" d="m1598.3 65.61c0 11.956-.1 23.911.1 35.768.1 2.9642-.5992 3.557-3.5954 3.557-47.44-.0988-94.88-.0988-142.22-.0988-.799-2.2725-2.4968-3.7546-4.3943-5.2367-16.479-12.746-32.858-25.393-49.337-38.139-1.598-1.1857-3.2959-2.1737-5.1934-2.7666-.2996-.69164-.6991-1.2845-.9988-1.9761 1.0986-.29642 2.1973-.69164 3.3957-.79045 15.181-1.3833 30.461-2.8654 45.642-3.9522 8.2894-.59284 16.579-2.2725 24.868-.19761h1.9975c1.6978.69164 3.2959 1.2845 4.9937 1.9761 2.9962.29642 5.9924.69164 8.9886.98806.699.69164 1.2983 1.2845 1.9975 1.9761h5.9923c.6991.29642 1.2983.69164 1.9975.98806h3.9948c7.0912 4.2487 15.181 5.1379 22.971 6.8176h1.9973c6.0924 2.3713 12.384 1.0869 18.676.98806 19.375.0988 38.751.0988 58.126.0988z"/><path class="st0" d="m1279.9.89191h1.9973v38.139c0 3.4582-.2996 6.8176-1.3981 10.177-1.2984 3.9522-3.6953 6.2248-7.99 6.9164-7.6901 1.2845-8.3892 2.569-6.2919 9.8806 3.5954 12.845 6.8912 25.887 9.6877 38.93h-216.62c1.9974-7.0152 8.5891-10.078 13.283-14.821 7.9899-8.0033 16.379-15.611 24.669-23.417h4.9936c2.1972 2.3713 5.1935 2.0749 7.9899 1.9761 32.059-1.2845 64.318 3.063 96.278-3.7546 12.584-2.6678 25.667-3.3594 38.551-4.9403 1.8975-.19761 3.5954-.59283 4.8937-2.0749h1.9975c3.6953 1.5809 7.1909.69164 10.487-.98806 3.0961-1.4821 6.0923-3.2606 9.3881-4.5451 6.0923-2.3713 8.3894-6.4224 8.1896-12.845-.3994-12.944-.1-25.788-.1-38.633z"/><path class="st2" d="m1392.7 56.816c.2997.69164.6992 1.2845.9988 1.9761 1.0986 2.569 3.3957 4.051 5.3931 5.6319 15.181 11.758 30.361 23.417 45.542 35.076 1.9974 1.4821 4.0947 2.8654 4.8938 5.3355h-155.7c-1.8976-7.9045-3.6953-15.908-5.6929-23.812-.9987-3.9522-1.9974-7.9045-3.096-11.857-.2996-1.0869-.799-2.3713-2.2971-2.1737-1.498.19761-1.5979 1.4821-1.7976 2.569-.1998 1.4821-.1998 2.9642-.1998 4.3475v30.827h-1.9975c0-3.063-.1997-6.2248 0-9.2877.9988-13.635-2.8962-27.764 3.6953-40.906.3995-.79045.1998-1.9761.2996-2.8654 1.8977-16.896.5993-33.89.9987-50.885h30.961c-.1 2.6678-1.0987 5.0391-2.2972 7.4104-7.5903 15.513-15.081 30.926-22.571 46.439-1.3984 2.8654-4.0949 6.0272-1.8977 9.0901 2.1973 3.063 6.0924 1.6797 9.2882 1.3833 31.161-2.7666 62.221-5.6319 93.282-8.4973.8988.19761 1.498.19761 2.1972.19761z"/></g><path class="st3" d="m1102.2 66.598h-4.9936c-2.3969-1.7785-5.1935-1.9761-7.9899-1.9761-.6991-.69164-1.2984-1.2845-1.9974-1.9761-3.2958-.69164-6.6915-1.2845-9.9874-1.9761-.699-.29642-1.2983-.69164-1.9974-.98806-7.5903 0-14.482-3.4582-21.972-3.9522-1.2983-2.2725-3.5954-2.7666-5.9923-2.9642h-1.9974c-.6991-.29642-1.2983-.69164-1.9975-.98806-2.7965.09881-5.3932-.98806-7.9899-1.9761-.2996-.29642-.6991-.69164-.9987-.98806-1.6978-16.007-3.2958-32.013-4.9936-48.02h2.9962c2.8963 13.438 2.0973 27.27 4.694 40.708 1.1984 6.126 2.297 6.7188 7.6902 3.4582 20.873-12.647 41.747-25.393 62.62-38.04 2.5967-1.5809 5.5928-2.9642 6.8912-6.126h25.967c.2996 1.9761 1.3983 3.6558 2.6966 5.1379 15.381 16.698 30.661 33.495 45.942 50.292 3.6953 4.051 5.493 3.8534 7.9898-1.0869 3.2959-6.8176 6.4918-13.635 9.488-20.552 4.8938-11.264 10.786-22.133 14.681-33.693h2.9962c-.7991 2.1737-1.3983 4.3475-2.2972 6.4224-8.4891 18.773-17.078 37.546-25.667 56.319-1.2983.29642-2.6966.69164-3.9949.98806-9.9873-1.8773-19.974-.88925-29.962-.59284-.9988 0-1.9974 1.0869-2.9961 1.5809h-7.99c-11.286-1.8773-22.671-.88925-33.957-.59283-.9988 0-1.9975 1.0869-2.9962 1.5809h-11.885z" stroke="#66a901"/><path class="st4" d="m111.93 56.816c.69911.69164 1.2983 1.2845 1.9975 1.9761.69912 2.0749 2.397 3.4582 4.0948 4.7427 11.785 9.0901 23.67 17.884 35.155 27.27 5.3931 4.4463 12.185 7.4104 15.58 14.03h-44.943c-3.3957-12.944-6.6915-25.887-10.187-38.831-.59925-2.0749-.69912-4.9403-3.5954-5.3355-2.397-.29642-3.6953 1.9761-4.9937 3.557-7.2907 9.2878-14.581 18.576-21.573 28.061-2.9962 4.051-6.7914 7.6081-8.689 12.45h-59.924c-2.397-10.671-5.0935-21.441-7.7901-32.112-.89886-3.557-1.2984-7.608-5.8925-8.8925 0-19.86.099873-39.72-.099873-59.58 0-2.569.29962-3.3594 3.1959-3.3594 10.587.19761 21.173.098806 31.76.098806-.59924 1.8773-.99873 3.7546-1.8976 5.5331-4.3944 9.0901-8.8887 18.18-13.383 27.369-4.0948 8.3985-8.2895 16.698-12.185 25.195-2.0973 4.4463-.69911 6.4224 4.2945 6.62 1.1985 0 2.2971-.0988 3.4956-.19761 31.16-2.8654 62.421-5.7307 93.581-8.5961h1.9975z" stroke="#5e9b00"/><path class="st4" d="m849.69 104.84c-1.7977-11.165-5.1934-21.935-7.9899-32.804-.6991-2.8654-1.4981-5.6319-2.2971-8.4973-.99872-4.051.39951-6.2248 4.7939-6.62 8.5891-.98806 10.187-2.6678 10.387-11.461.19974-14.821.0998-29.642.0998-44.561h34.956c-.39948 2.7666-1.6978 5.2367-2.8963 7.8057-8.0897 16.501-16.179 32.902-24.169 49.403-2.5967 5.4343-1.2984 7.3116 4.694 6.8176 18.676-1.5809 37.353-3.4582 56.029-4.8415 13.383-.98806 26.666-3.3594 40.149-3.2606h.99873c.29963.98806.69911 1.9761.99873 2.9642-3.3957 0-5.2933 2.0749-7.1909 4.5451-7.9898 10.473-16.179 20.947-24.269 31.42-2.1972 2.8654-4.4943 5.6319-5.493 9.1889h-60.923c-2.7965-11.56-5.5929-23.121-8.4892-34.681-.39949-1.6797-.59924-4.2487-2.7964-4.051-2.3969.19761-1.6978 2.8654-1.6978 4.4463-.0998 11.363-.0998 22.824-.0998 34.187h-4.7939z" stroke="#609e00"/><path class="st4" d="m537.19 56.816c.6991.69164 1.2984 1.2845 1.9974 1.9761-3.1959 0-5.6928 1.5809-7.5904 3.9522-3.7952 4.7427-7.6902 9.3866-11.186 14.327-6.7914 9.2878-14.781 17.587-20.075 27.863h-57.926c-.99874-8.7937-3.895-17.093-5.7926-25.69-1.0986-4.7427-1.6978-9.683-4.3944-13.932-.69911-1.0869-1.1985-2.569-2.8963-2.1737-1.598.39522-1.598 1.8773-1.6978 3.1618-.0998 1.4821-.0998 2.9642-.0998 4.3475v34.187h-2.9962c.0998-3.1618-.39948-6.126-1.1985-9.1889-2.6966-10.078-5.2933-20.156-7.7901-30.333-1.2984-5.0391-.0998-6.3236 4.9937-6.126 5.9924.19761 7.2908-.79045 7.9898-6.62 2.0974-17.192.49937-34.483.99873-51.675h32.958c-.59923 3.7546-2.2971 7.2128-3.8951 10.572-7.5903 15.611-15.181 31.223-22.771 46.834-2.6966 5.6319-1.3982 7.7069 4.7939 7.114 12.085-.98806 24.169-2.1737 36.254-3.2606 19.975-1.7785 40.149-3.557 60.323-5.3355z" stroke="#5e9b00"/><g stroke="#609e00"><path class="st5" d="m1390.7 56.816c-31.06 2.8654-62.221 5.7307-93.282 8.4973-3.1959.29642-7.1908 1.6797-9.2883-1.3833-2.1971-3.063.4995-6.2248 1.8977-9.0901 7.4904-15.513 15.081-30.926 22.571-46.439 1.1985-2.3713 2.1973-4.7427 2.2972-7.4104h49.936c1.9976 4.6439 3.8951 9.2878 6.0922 13.833 6.4918 13.932 13.183 27.962 19.775 41.992z"/><path class="st5" d="m110.03 56.816c-31.16 2.8654-62.421 5.7307-93.581 8.5961-1.1985.09881-2.2971.19761-3.4956.19761-4.9937-.19761-6.3919-2.1737-4.2945-6.62 3.9949-8.3985 8.0897-16.797 12.185-25.195 4.4943-9.0901 8.9886-18.18 13.383-27.369.79899-1.7785 1.1985-3.6558 1.8976-5.5331h46.94c7.89 16.599 15.68 33.199 23.57 49.798.79899 1.5809 1.7977 3.063 3.3957 4.1498-.0998.69164-.0998 1.2845 0 1.9761z"/><path class="st5" d="m963.45 56.816c-13.483-.19761-26.766 2.2725-40.149 3.2606-18.676 1.3833-37.353 3.2606-56.029 4.8415-6.0923.49403-7.3906-1.3833-4.694-6.8176 7.9898-16.501 16.08-33.001 24.169-49.403 1.1985-2.4701 2.5967-4.9403 2.8963-7.8057h47.939c1.3982 4.3475 3.3957 8.4973 5.3932 12.548 6.7914 14.426 13.683 28.95 20.474 43.376z"/></g><path class="st6" d="m110.03 56.816v-1.9761c-.49937-1.6797-.89886-3.4582-1.6978-5.0391-3.4956-7.4104-7.2907-14.623-10.587-22.034-3.8951-8.9913-9.3881-17.291-11.785-26.875h91.883c.3995 4.9403.59923 9.8806 1.9975 14.722v1.9761c-.0998 5.3355.29962 10.572 1.9975 15.71v1.9761c.0998 3.063.0998 6.2248.39949 9.2878.29963 3.063 1.9975 5.1379 5.0935 5.9284 18.776 4.7427 37.652 9.4854 56.428 14.228v.98806c-1.9975.69164-3.8951.29642-5.8925-.29642-17.678-4.5451-35.355-9.0901-53.033-13.536-7.2907-1.7785-14.581.0988-21.772.59283-17.078 1.1857-34.057 2.8654-51.135 4.3475h-1.8976z" stroke="#65a700"/><path class="st5" d="m537.19 56.816c-20.174 1.7785-40.349 3.557-60.523 5.3355-12.085 1.0869-24.169 2.2725-36.254 3.2606-6.1921.49403-7.4905-1.5809-4.7939-7.114 7.5904-15.611 15.181-31.223 22.771-46.834 1.598-3.3594 3.2958-6.8176 3.895-10.572h46.94c6.9911 17.39 15.68 33.989 23.87 50.786.89886 1.7785 2.2971 3.1618 4.0948 4.1498v.98806z" stroke="#609e00"/><path class="st6" d="m1390.7 56.816c-6.5916-14.03-13.283-27.962-19.875-41.992-2.0973-4.5451-4.0949-9.2878-6.0923-13.833h92.882c0 2.3713 0 4.6439.9987 6.8176v1.9761c-.4993 8.2997 2.0974 16.303 2.0974 24.603 0 1.4821.6991 2.7666 1.8976 3.8534v2.9642c-2.2971 4.9403 1.0985 7.7069 3.9948 10.77-8.2894-2.0749-16.579-.39522-24.868.19761-15.281.98806-30.461 2.569-45.642 3.9522-1.0986.09881-2.2971.49403-3.3957.79045-.6992-.0988-1.2984-.0988-1.9975-.0988z" stroke="#65a700"/><path class="st6" d="m626.08 54.84h-.49937c-21.173-6.9164-42.346-1.5809-63.519-.29642-8.2895.49403-16.479 1.6797-24.769 1.3833-.3995-3.1618-2.0973-5.8295-3.3957-8.5961-7.1909-15.414-15.38-30.432-21.573-46.241h91.883c.99873 7.5092 1.9975 15.018 2.9962 22.528v2.9642c.59925 5.8295 1.3982 11.659 1.8976 17.489.39948 3.7546 2.4968 5.7307 6.0922 6.8176 3.5954.98806 7.7901.98806 10.886 3.9522z" stroke="#609e00"/><path class="st6" d="m1029.4.89191c1.6979 16.007 3.2958 32.013 4.9937 48.02-14.482 1.1857-29.063 2.3713-43.545 3.6558-2.5967.19761-5.3932 0-7.3906 2.1737h-1.9975c-2.6966-1.0869-5.493-1.0869-8.2895-.98806-4.7939.29642-7.6902-1.5809-9.6877-5.9284-4.4943-9.7818-9.2882-19.465-13.882-29.247-2.7964-5.9284-6.4918-11.461-8.0897-17.884 29.263.19761 58.625.19761 87.888.19761z" stroke="#65a700"/><path class="st5" d="m429.43.89191c-.49936 17.192 1.0986 34.483-.99873 51.675-.69911 5.8295-2.0973 6.9164-7.9898 6.62-5.0935-.19761-6.1921 1.0869-4.9937 6.126 2.4968 10.078 5.0935 20.255 7.7901 30.333.79899 3.063 1.2984 6.0271 1.1985 9.1889h-90.885c.59925-11.461 4.1947-22.429 6.5916-33.495.69912-3.3594 3.3957-4.5451 6.7914-4.6439 19.076-.49403 37.852-4.2487 56.828-6.0272 2.6966-.29642 4.7939-1.1857 5.7926-3.8534 3.1959-1.3833 6.292-3.063 9.4879-4.1498 6.4918-2.2725 8.5891-6.7188 8.4892-13.24-.29963-12.845-.0998-25.69-.0998-38.534h1.9975z" stroke="#609e00"/><path class="st6" d="m768.8 64.622c-1.9975.29642-3.895.88925-5.8925.88925-28.863.39522-57.727.98806-86.59.88925-10.187 0-19.975-2.8654-29.363-6.7188 6.9911-.49403 13.183 2.8654 19.975 3.7546 6.3919.88925 7.2908.69164 9.7876-5.2367 3.4956-8.2997 7.2907-16.501 10.387-24.899 3.9949-10.869 9.5878-21.144 12.684-32.408h9.9873c.59923.98806.99874 2.0749 1.6978 2.9642 16.679 18.477 33.458 36.953 50.236 55.43 1.7977 1.9761 4.0948 3.3594 6.8912 3.3594.19975.69164.19975 1.3833.19975 1.9761z" stroke="#609e00"/><path class="st7" d="m243.76 65.61v-.98806c1.9975-1.1857 3.8951-2.569 4.7939-4.7427 8.4892-19.465 16.679-39.028 24.069-58.987h12.984c.3995 2.3713 1.7977 4.051 3.3957 5.8295 15.48 16.995 30.961 34.088 46.341 51.181 1.9975 2.1737 4.0948 3.7546 7.1909 3.8534v1.9761c-29.463-.69164-59.025 1.4821-88.488.98806-2.1972 0-4.2946.09881-6.3919.98806-1.2984-.0988-2.5967-.0988-3.8951-.0988z" stroke="#66a800"/><path class="st7" d="m1598.3 65.61c-19.375 0-38.751-.0988-58.226 0-6.2921 0-12.584 1.3833-18.676-.98806 4.2946-.98806 6.3919-3.7546 7.9899-7.8057 3.2958-8.6949 7.1909-17.192 10.586-25.788 3.995-9.9794 9.1884-19.465 11.386-30.136h12.984c.9988 1.4821 1.7978 3.1618 2.8963 4.4463 9.0885 10.177 18.177 20.255 27.365 30.333.9988 1.0869 2.3971 1.6797 3.6954 2.4701v27.468z" stroke="#609e00"/><path class="st8" d="m768.8 62.646c-2.7964-.0988-5.0935-1.3833-6.8912-3.3594-16.779-18.477-33.557-36.953-50.236-55.43-.79897-.79045-1.1985-1.9761-1.6978-2.9642h86.89c-1.6978 3.8534-3.2958 7.8057-4.9937 11.659-7.1909 16.402-15.48 32.408-21.972 49.107-.39949.39522-.79898.69164-1.0986.98806z" stroke="#68ab03"/><path class="st8" d="m342.54 61.658c-3.0961-.09881-5.1934-1.6797-7.1909-3.8534-15.38-16.995-30.861-34.088-46.241-51.083-1.598-1.7785-3.0961-3.4582-3.3957-5.8295h83.893c-1.3982 3.3594-2.5967 6.7188-4.0948 9.9794-7.6902 16.896-15.281 33.89-22.971 50.786z" stroke="#68ab03"/><path class="st9" d="m1196.1 63.634c8.5891-18.773 17.178-37.546 25.667-56.319.8988-2.0749 1.4981-4.2487 2.2972-6.4224h23.97c4.0949 13.734 8.2895 27.468 12.384 41.202 3.4957 11.758 3.3957 11.758-7.9897 15.513-.1998.09881-.2996.09881-.4994.19761h-1.9975c-3.5955.29642-7.2908.39522-10.886.79045-14.282 1.6797-28.564 3.3594-42.946 5.0391z" stroke="#66a901"/><path class="st9" d="m342.54 63.634v-1.9761c3.9949-2.4701 4.7939-6.9164 6.3919-10.77 7.3906-16.698 15.88-33.001 22.471-50.095h23.97c.29962 2.0749.3995 4.2487.99874 6.2248 3.5954 11.956 7.2907 23.911 11.086 35.867 2.9962 9.4854 3.0961 9.4854-4.7939 14.426-.0998.0988-.19974.19761-.39949.29642h-4.9937c-1.6978.29642-3.2958.69164-4.9937.98806-1.8976-.88925-3.5954-.79045-4.9936.98806h-3.9949c-1.8976-.88925-3.5954-.79045-4.9937.98806h-2.9962c-1.2984-.39522-2.2971-.0988-2.9962.98806h-4.9937c-1.598-.69164-2.8963-.39522-3.9949.98806h-3.9949c-1.8976-.88925-3.5954-.79045-4.9937.98806h-2.9962c-1.8976-.88925-3.5954-.79045-4.9937.98806h-3.9949c.19975-.19761.19975-.49403.19975-.88925z" stroke="#64a500"/><path class="st9" d="m768.8 62.646c.29963-.29642.69912-.69164.99873-.98806 2.2971-1.2845 3.3957-3.557 4.3944-5.7307 3.6953-7.8057 7.5904-15.611 10.886-23.615 4.3944-10.572 10.187-20.453 13.683-31.42h22.971c2.7964 14.327 8.3893 27.764 12.284 41.795 3.2958 11.758 3.7952 9.3866-4.3944 15.117h-4.9937c-1.9975.29642-3.9949.69164-5.9924.98806-1.598-.69164-2.8963-.39522-3.9949.98806h-3.9949c-1.8976-.88925-3.5954-.79045-4.9936.98806h-2.9962c-1.2983-.49403-2.2971-.09881-2.9962.98806h-4.9937c-1.8976-.88925-3.5954-.79045-4.9937.98806h-3.9949c-1.598-.69164-2.8963-.39522-3.9949.98806h-2.9962c-1.598-.69164-2.8963-.39522-3.9949.98806h-5.9924c.0998-.69164.0998-1.3833.0998-2.0749z" stroke="#64a500"/><path class="st10" d="m699.88.89191c-3.0961 11.264-8.689 21.54-12.684 32.408-3.0961 8.3985-6.8913 16.599-10.387 24.899-2.4968 5.9284-3.3957 6.126-9.7876 5.2367-6.6915-.88925-12.984-4.2487-19.975-3.7546h-1.9975c-4.2945-3.6558-9.6877-4.051-14.981-4.8415h-3.9949c-2.9962-2.9642-7.2907-2.9642-10.986-4.1498-3.5954-1.0869-5.6928-2.9642-6.0923-6.8176-.49937-5.8295-1.2984-11.659-1.8976-17.489 2.397 1.9761 2.6966 4.7427 2.8963 7.5092.19975 2.4701.19975 4.9403.49936 7.3116.89887 5.5331 2.6966 6.3236 7.6902 3.3594 21.672-13.141 43.245-26.282 64.818-39.424 1.7977-1.0869 3.1959-2.3713 3.895-4.3475 4.3944.098806 8.689.098806 12.984.098806z" stroke="#67aa02"/><path class="st8" d="m1221 .89191c-3.9949 11.659-9.7874 22.528-14.681 33.693-2.9962 6.9164-6.1921 13.734-9.488 20.552-2.397 5.0391-4.1947 5.1379-7.9898 1.0869-15.38-16.698-30.661-33.495-45.942-50.292-1.3982-1.4821-2.3969-3.1618-2.6965-5.1379 26.866.098806 53.832.098806 80.797.098806z" stroke="#66a901"/><path class="st10" d="m272.63.89191c-7.3906 19.959-15.58 39.522-24.069 58.987-.99873 2.1737-2.7964 3.557-4.7939 4.7427-18.776-4.7427-37.652-9.4854-56.428-14.228-3.0961-.79045-4.7939-2.8654-5.0935-5.9284-.29962-3.063-.29962-6.2248-.39949-9.2878 1.598 1.3833 1.7977 3.3594 1.9975 5.3355.6991 6.3236 2.397 7.3116 7.89 3.9522 21.573-13.141 43.145-26.381 64.718-39.522 1.6979-1.0869 3.2958-2.2725 4.1947-4.051h11.985z" stroke="#67aa02"/><path class="st10" d="m1551.4.89191c-2.1972 10.671-7.3906 20.156-11.386 30.136-3.3956 8.5961-7.3906 17.093-10.586 25.788-1.4981 4.051-3.6953 6.8176-7.9899 7.8057h-1.9975c-.8988-1.3833-2.1971-2.3713-3.895-2.7666-6.3919-1.3833-12.784-2.7666-19.076-4.1498h-3.9949c-.4993-.69164-1.0986-1.0869-1.9974-.98806h-5.9924c-.6992-.69164-1.2984-1.2845-1.9976-1.9761-2.9961-.29642-5.9923-.69164-8.9884-.98806-1.1985-1.7785-2.7966-2.569-4.9938-1.9761h-1.9974c-2.8963-3.063-6.3919-5.8295-3.995-10.77 3.0961 6.5212 3.4956 6.62 9.7877 2.7666 20.674-12.548 41.348-25.195 62.021-37.744 2.0974-1.2845 4.0949-2.7666 4.9938-5.2367 4.0947.098806 8.0897.098806 12.085.098806z" stroke="#67aa02"/><path class="st1" d="m1043.3 104.84h-16.978c-.8988-2.5689-2.8963-4.2486-4.9936-5.9283-15.78-12.153-31.56-24.405-47.34-36.558-1.9975-1.4821-3.9949-2.9642-4.5942-5.5331h1.9975c2.7965 1.0869 5.5929 1.4821 7.9899-.98806h1.9975c6.5916 1.4821 12.984 1.5809 18.976-1.9761h5.9925c5.2933 1.3833 10.387 1.6797 14.981-1.9761h7.9898c4.4943 1.1857 8.8887 2.0749 9.4879 8.2009 1.1985 14.92 2.8964 29.839 4.4944 44.759z" stroke="#61a100"/><path class="st11" d="m1114.2.89191c-1.2984 3.063-4.2945 4.4463-6.8912 6.126-20.874 12.746-41.747 25.393-62.62 38.04-5.3932 3.2606-6.4918 2.6678-7.6902-3.4582-2.5967-13.438-1.7977-27.27-4.694-40.708h81.896z" stroke="#66a901"/><path class="st11" d="m686.9.89191c-.69911 1.9761-2.0973 3.2606-3.895 4.3475-21.672 13.141-43.245 26.282-64.818 39.424-4.9937 3.063-6.7914 2.2725-7.6902-3.3594-.39948-2.3713-.29961-4.8415-.49936-7.3116-.19974-2.7666-.49937-5.5331-2.8963-7.5092v-2.9642c.79899-1.7785 1.0986-3.7546.89885-5.7307-.39948-5.6319-1.2983-11.264-.89885-16.896h79.799z" stroke="#67aa02"/><path class="st11" d="m260.74.89191c-.99874 1.7785-2.4968 3.063-4.1947 4.051-21.573 13.24-43.045 26.48-64.718 39.522-5.493 3.3594-7.1909 2.3713-7.89-3.9522-.19973-1.9761-.39949-3.9522-1.9975-5.3355v-1.9761c1.2984-5.4343 2.1972-10.869-1.9975-15.71v-1.9761c1.9975-4.9403.39949-9.7818 0-14.722 26.866.098806 53.832.098806 80.797.098806z" stroke="#69ac04"/><path class="st11" d="m1539.4.89191c-.8988 2.4701-2.8963 3.8534-4.9937 5.2367-20.674 12.548-41.348 25.195-62.021 37.744-6.292 3.8534-6.6915 3.7546-9.7875-2.7666v-2.9642c-.3996-7.114-.6992-14.228-1.1985-21.342-.1998-2.569-.4994-5.2367-2.7965-7.114v-1.9761c.9988-2.1737.9988-4.5451.9988-6.8176h79.799z" stroke="#69ac04"/><path class="st12" d="m1043.3 104.84c-1.4981-14.92-3.2959-29.839-4.4944-44.759-.4993-6.126-4.9936-7.0152-9.4879-8.2009 1.9975-.69164 3.995-1.2845 5.9924-1.9761 2.5966.98806 5.0935 2.0749 7.9899 1.9761.4993.69164 1.0985 1.0869 1.9974.98806h1.9975c1.3982 2.0749 3.6953 2.6678 5.9924 2.9642 7.4904.39522 14.382 3.8534 21.972 3.9522.4993.69164 1.0985 1.0869 1.9974.98806 3.2959.69164 6.6915 1.2845 9.9873 1.9761.6992.69164 1.2984 1.2845 1.9975 1.9761 2.7965 0 5.5929.19761 7.9899 1.9761-8.1897 7.8057-16.679 15.414-24.669 23.417-4.694 4.7427-11.286 7.8057-13.283 14.821-5.3931-.0988-10.686-.0988-15.98-.0988z" stroke="#609e00"/><g stroke="#62a200"><path class="st12" d="m402.46 57.804c.0998-.09881.19974-.29642.39949-.29642 7.89-5.0391 7.7901-4.9403 4.7939-14.426-3.7952-11.956-7.4905-23.911-11.086-35.867-.59925-1.9761-.69911-4.1498-.99873-6.2248h31.959c0 12.845-.19975 25.69.0998 38.534.0998 6.5212-1.9975 10.967-8.4892 13.24-3.2958 1.0869-6.3919 2.7666-9.488 4.1498-2.5967.19761-4.8938.49403-7.1909.88925z"/><path class="st12" d="m1252 57.804c.1998-.09881.2996-.09881.4994-.19761 11.386-3.7546 11.485-3.7546 7.9898-15.513-4.0948-13.734-8.2894-27.468-12.384-41.202h31.96c0 12.845-.2996 25.69.1 38.534.1998 6.4224-2.0973 10.473-8.1896 12.845-3.1959 1.2845-6.1921 3.063-9.388 4.5451-3.4957 1.5809-6.8913 2.4701-10.587.98806z"/><path class="st12" d="m829.72 57.804c8.1896-5.7307 7.6902-3.3594 4.3944-15.117-3.9949-13.932-9.5878-27.468-12.284-41.795h30.961c0 13.339-.0998 26.678 0 40.016 0 4.3475-1.3982 7.5092-5.493 9.4854-5.8925 2.569-10.686 7.3116-17.578 7.4104z"/></g><path class="st13" d="m74.978 104.84c1.7977-4.8415 5.6928-8.3985 8.689-12.45 6.9911-9.4854 14.382-18.773 21.573-28.061 1.2984-1.6797 2.4968-3.9522 4.9937-3.557 2.8963.39522 2.9962 3.1618 3.5954 5.3355 3.4956 12.944 6.7914 25.887 10.187 38.831-16.379-.0988-32.659-.0988-49.038-.0988z" stroke="#5c9800"/><path class="st13" d="m928.49 104.84c.99874-3.557 3.2958-6.3236 5.493-9.1889 8.0897-10.473 16.179-20.947 24.269-31.42 1.8976-2.4701 3.7952-4.4463 7.1909-4.5451.799 3.6558 1.6978 7.3116 2.4968 10.967 2.4968 11.461 6.5916 22.528 8.4892 34.187h-47.939z" stroke="#5c9800"/><path class="st4" d="m976.43 104.84c-1.7977-11.659-5.9924-22.725-8.4892-34.187-.79899-3.6558-1.6978-7.3116-2.4968-10.967 2.0974 1.2845 4.3944 2.3713 6.292 3.8534 15.88 12.252 31.76 24.603 47.64 36.953 1.5979 1.1857 3.0961 2.4702 3.895 4.3474h-46.84z" stroke="#5e9b00"/><path class="st13" d="m549.18 104.84h-45.942c.59923-2.2725 1.8976-4.1498 3.2958-5.9283 8.3894-10.967 16.879-21.836 25.268-32.804 1.1985-1.4821 2.1972-3.7546 4.4943-3.3594 2.5967.49403 2.6966 3.063 3.1959 5.0391 3.3957 12.351 6.4918 24.701 9.6877 37.052z" stroke="#5c9800"/><path class="st4" d="m560.16 74.502h.99873c.69912 1.9761 1.9975 3.2606 3.9949 3.9522h.99873c2.9962 5.1379 7.89 8.0033 12.984 10.77h.99873c1.4981 3.7546 5.1934 5.3355 7.9898 7.8057 2.7965 2.4701 6.4918 4.1498 7.9899 7.8057h-44.943c-.69911-3.557-1.2984-7.0152-2.1972-10.473-2.8963-11.56-5.8925-23.022-8.7888-34.582h.99873c5.493 5.9284 11.885 10.671 18.976 14.722z" stroke="#5e9b00"/><path class="st8" d="m1598.3 38.142c-1.1985-.79045-2.6966-1.3833-3.6954-2.4701-9.1883-10.078-18.277-20.156-27.365-30.333-1.1984-1.2845-1.9975-2.9642-2.8963-4.4463 10.387 0 20.774.098806 31.26-.098806 2.3969 0 2.7964.49403 2.7964 2.7666-.1997 11.56-.1 23.121-.1 34.582z" stroke="#68ab03"/><path class="st5" d="m1283.9.89191c-.3995 16.995.9988 33.89-.9987 50.885-.1.98806.1 2.0749-.2996 2.8654-6.5916 13.141-2.6965 27.27-3.6953 40.906-.1998 3.063 0 6.2248 0 9.2877h-2.9962c-2.7965-13.042-6.0923-26.085-9.6877-38.93-1.9975-7.2128-1.3982-8.4973 6.2919-9.8806 4.3945-.69164 6.7915-3.063 7.99-6.9164 1.0985-3.2606 1.3981-6.7188 1.3981-10.177v-38.139c.5993.098806 1.2984.098806 1.9975.098806z" stroke="#609e00"/><path class="st13" d="m427.43 104.84v-34.187c0-1.4821 0-2.9642.0998-4.3475.0998-1.2845.0998-2.8654 1.6978-3.1618 1.6978-.39522 2.1972 1.0869 2.8963 2.1737 2.6966 4.2487 3.2958 9.1889 4.3944 13.932 1.9975 8.5961 4.8938 16.896 5.7926 25.69-4.8938-.0988-9.8874-.0988-14.881-.0988z" stroke="#5c9800"/><path class="st13" d="m1.1722 63.634c4.4943 1.3833 4.9937 5.3355 5.8925 8.8925 2.7964 10.77 5.3932 21.54 8.0897 32.31-4.694 0-11.086 1.7785-13.483-.49402-2.2971-2.2725-.49937-8.6949-.49937-13.24v-27.468z" stroke="#609e00"/><g stroke="#5c9800"><path class="st13" d="m854.69 104.84c0-11.363 0-22.824.0998-34.187 0-1.6797-.6991-4.2487 1.6979-4.4463 2.1972-.19761 2.397 2.3713 2.7964 4.051 2.8963 11.56 5.6928 23.121 8.4892 34.681-4.4943-.0988-8.7888-.0988-13.083-.0988z"/><path class="st13" d="m1280.9 104.84v-30.827c0-1.4821 0-2.9642.1997-4.3475.1-1.0869.2996-2.4701 1.7977-2.569 1.4981-.19761 1.9975 1.0869 2.2971 2.1737 1.0985 3.9522 2.0973 7.9045 3.096 11.857 1.8977 7.9045 3.7952 15.908 5.6929 23.812-4.4943-.0988-8.7889-.0988-13.083-.0988z"/><path class="st2" d="m540.19 59.78c2.8963 11.56 5.8925 23.022 8.7888 34.582.89885 3.4582 1.4981 7.0152 2.1972 10.473h-1.9975c-3.196-12.351-6.292-24.701-9.5878-37.052-.49936-1.9761-.59923-4.6439-3.1959-5.0391-2.2971-.39522-3.3957 1.7785-4.4943 3.3594-8.4892 10.869-16.879 21.836-25.268 32.804-1.3982 1.8773-2.6966 3.7546-3.2958 5.9283h-2.9962c5.2933-10.276 13.383-18.575 20.075-27.863 3.5954-4.8415 7.4905-9.5842 11.186-14.327 1.8976-2.4701 4.3944-3.9522 7.5904-3.9522.39949.39522.69911.69164.99874 1.0869z"/></g><path class="st9" d="m971.44 56.816h-7.9898c-6.8912-14.426-13.683-28.851-20.574-43.277-1.9975-4.1498-3.9949-8.2009-5.3932-12.548h3.9949c1.598 6.4224 5.2933 11.956 8.0897 17.884 4.5942 9.7818 9.3881 19.465 13.882 29.247 1.9975 4.3475 4.8938 6.2248 9.6877 5.9284 2.7965-.19761 5.6928-.19761 8.2895.98806v.98806h-1.9975c-2.6966-.19761-5.3932-.29642-7.9899.79045z" stroke="#65a700"/><path class="st5" d="m964.45 56.816h4.9936c.59925 2.569 2.5967 4.051 4.5942 5.5331 15.78 12.153 31.56 24.405 47.34 36.558 2.0973 1.5809 4.0948 3.3594 4.9936 5.9283h-2.9962c-.799-1.8773-2.297-3.1618-3.8951-4.3474-15.88-12.351-31.76-24.701-47.639-36.953-1.8976-1.4821-4.1947-2.569-6.292-3.8534-.3995-.88925-.79898-1.8773-1.0986-2.8654z" stroke="#61a100"/><g stroke="#609e00"><path class="st5" d="m168.86 104.84c-3.3957-6.62-10.187-9.5842-15.58-14.03-11.485-9.3866-23.37-18.18-35.155-27.27-1.6978-1.2845-3.3957-2.6678-4.0948-4.7427 8.2895 3.3594 14.282 9.8806 21.273 15.117 11.286 8.2997 22.172 17.192 33.258 25.788 1.8976 1.4821 3.5954 2.9642 4.3944 5.2367-1.3982-.0988-2.7964-.0988-4.0948-.0988z"/><path class="st0" d="m512.22.89191c6.1921 15.908 14.382 30.827 21.573 46.241 1.2984 2.8654 2.9962 5.5331 3.3957 8.5961-1.7977-.98806-3.196-2.3713-4.0948-4.1498-8.1896-16.797-16.978-33.396-23.87-50.786.99873.098806 1.9975.098806 2.9962.098806z"/><path class="st5" d="m1449.6 104.84c-.899-2.4701-2.9963-3.8534-4.8939-5.3355-15.181-11.659-30.362-23.417-45.542-35.076-2.0973-1.5809-4.3944-3.063-5.3932-5.6319 1.9975.49403 3.6954 1.4821 5.1934 2.7666 16.379 12.746 32.858 25.492 49.337 38.139 1.8976 1.4821 3.5954 2.9642 4.3944 5.2367-1.0986-.0988-2.0973-.0988-3.096-.0988z"/></g><path class="st6" d="m798.76.89191c-3.4956 10.967-9.3881 20.848-13.683 31.42-3.2958 8.0033-7.1909 15.809-10.886 23.615-.99872 2.1737-2.0973 4.4463-4.3944 5.7307 6.4918-16.698 14.781-32.705 21.972-49.107 1.6978-3.8534 3.2958-7.8057 4.9937-11.659h1.9975z" stroke="#64a500"/><path class="st1" d="m85.965.89191c2.2971 9.5842 7.7901 17.884 11.685 26.776 3.2958 7.5092 7.091 14.722 10.587 22.034.79897 1.5809 1.0986 3.3594 1.6978 5.0391-1.598-.98806-2.5967-2.4701-3.3957-4.1498-7.89-16.501-15.68-33.1-23.57-49.699h2.9962z" stroke="#609e00"/><path class="st7" d="m371.5.89191c-6.5916 17.093-15.081 33.298-22.471 50.095-1.6978 3.8534-2.397 8.2997-6.3919 10.77 7.5904-16.995 15.281-33.89 22.871-50.885 1.4981-3.2606 2.6966-6.62 4.0948-9.9794h1.8976z" stroke="#68ab03"/><path class="st5" d="m596.12 104.84c-1.4981-3.7546-5.1934-5.3355-7.9899-7.8057-2.7964-2.4701-6.4918-4.1498-7.9898-7.8057 6.9911 4.4463 14.182 8.6949 18.976 15.71-.99874-.0988-1.9975-.0988-2.9962-.0988z" stroke="#609e00"/><path class="st10" d="m607.1.89191c-.29962 5.6319.49937 11.264.89885 16.896.0998 1.9761-.19973 3.8534-.89885 5.7307-.99873-7.5092-1.9975-15.018-2.9962-22.528.99873-.098806 1.9975-.098806 2.9962-.098806z" stroke="#67aa02"/><path class="st10" d="m179.85.89191c.39949 4.9403 1.9975 9.7818 0 14.722-1.3982-4.8415-1.598-9.7818-1.9975-14.722z" stroke="#65a700"/><path class="st10" d="m1459.6.89191c0 2.3713 0 4.6439-.9988 6.8176-.9987-2.1737-.9987-4.5451-.9987-6.8176z" stroke="#69ac04"/><path class="st5" d="m560.16 74.502c-7.091-3.9522-13.483-8.6949-18.976-14.722 7.4905 3.4582 13.982 8.1021 18.976 14.722z" stroke="#609e00"/><path class="st5" d="m579.14 89.126c-4.9937-2.7666-9.9873-5.7307-12.984-10.77 5.0935 2.7666 9.9873 5.7307 12.984 10.77z" stroke="#609e00"/><path class="st6" d="m630.07 54.84c5.2933.79045 10.686 1.1857 14.981 4.8415-5.1934-.98806-10.686-1.3833-14.981-4.8415z" stroke="#67aa02"/><g stroke="#609e00"><path class="st12" d="m805.75 60.768c1.3982-1.6797 3.0961-1.7785 4.9936-.98806-1.6978.29642-3.2958.59284-4.9936.98806z"/><path class="st12" d="m789.77 62.646c1.3982-1.6797 3.0961-1.7785 4.9937-.98806-1.6978.39522-3.2958.69164-4.9937.98806z"/><path class="st5" d="m565.16 78.356c-1.9975-.69164-3.2958-1.9761-3.9949-3.9522 1.9975.69164 3.2958 2.0749 3.9949 3.9522z"/><path class="st12" d="m781.78 63.634c1.0986-1.3833 2.397-1.6797 3.9949-.98806-1.2984.39522-2.6966.69164-3.9949.98806z"/><path class="st12" d="m774.79 64.622c1.0986-1.3833 2.397-1.6797 3.9949-.98806-1.2984.39522-2.6966.69164-3.9949.98806z"/><path class="st12" d="m814.74 59.78c1.0986-1.3833 2.397-1.6797 3.9949-.98806-1.3982.29642-2.6966.59284-3.9949.98806z"/><path class="st12" d="m799.76 61.658c.69912-1.0869 1.6978-1.3833 2.9962-.98806-.99872.39522-1.9974.69164-2.9962.98806z"/><path class="st12" d="m824.73 57.804h1.9975z"/></g></g><path class="st6" d="m342.54 63.634v.98806c-7.1909 1.3833-14.482 1.7785-21.772 1.8773-21.772.19761-43.445.09881-65.217.09881-2.6966 0-5.2933.0988-7.89-.98806 1.9974-.79045 4.1947-.98806 6.3919-.98806 29.562.49403 59.025-1.6797 88.488-.98806z"/><g stroke-width=".99338"><g stroke="#609e00"><path class="st12" d="m378.49 60.768c1.3982-1.6797 3.0961-1.7785 4.9937-.98806-1.6979.29642-3.2958.59284-4.9937.98806z"/><path class="st12" d="m387.48 59.78c1.3982-1.6797 3.0961-1.7785 4.9937-.98806-1.6978.29642-3.2958.59284-4.9937.98806z"/><path class="st12" d="m354.52 63.634c1.3982-1.6797 3.0961-1.7785 4.9936-.98806-1.6978.39522-3.2958.69164-4.9936.98806z"/><path class="st12" d="m346.53 64.622c1.3982-1.6797 3.0961-1.7785 4.9937-.98806-1.6978.39522-3.2958.69164-4.9937.98806z"/><path class="st12" d="m363.51 62.646c1.0986-1.3833 2.397-1.6797 3.9949-.98806-1.2984.39522-2.6966.69164-3.9949.98806z"/><path class="st12" d="m372.5 61.658c.69912-1.0869 1.6979-1.3833 2.9962-.98806-.99873.39522-1.9975.69164-2.9962.98806z"/><path class="st12" d="m397.47 57.804h1.9975z"/></g><g stroke="#69ac04"><path class="st7" d="m1496.5 57.804c6.392 1.3833 12.784 2.7666 19.076 4.1498 1.6979.39522 2.9962 1.2845 3.895 2.7666-7.79-1.8773-15.88-2.6678-22.971-6.9164z"/><path class="st6" d="m1468.6 51.876c2.1972-.59284 3.7952.19761 4.9937 1.9761-1.6978-.69164-3.3957-1.2845-4.9937-1.9761z"/><path class="st6" d="m1482.6 54.84c.699.69164 1.2983 1.2845 1.9975 1.9761-.6992-.69164-1.3983-1.2845-1.9975-1.9761z"/><path class="st7" d="m1490.6 56.816c.8989-.0988 1.4981.29642 1.9975.98806-.6992-.39522-1.3982-.69164-1.9975-.98806z"/></g><path class="st12" d="m1196.1 63.634c14.382-1.6797 28.664-3.4582 43.045-5.0391 3.5954-.39522 7.2907-.49403 10.886-.79045-1.2983 1.4821-3.096 1.7785-4.8937 2.0749-12.884 1.5809-25.967 2.2725-38.551 4.9403-31.959 6.8176-64.218 2.569-96.278 3.7546-2.7964.0988-5.6928.39522-7.9899-1.9761h11.985c6.0923 0 12.185.19761 18.277 0 6.1922-.19761 12.484.88925 18.676-.98806h7.9899c3.4955 0 6.8912.0988 10.387 0 7.4905-.29642 15.081.98806 22.571-.98806 1.1985-.29642 2.5966-.59284 3.895-.98806z" stroke="#64a500"/><path class="st9" d="m1035.4 49.9c-1.9974.69164-3.9949 1.2845-5.9924 1.9761h-7.9898c-4.9936.69164-10.087.59283-14.981 1.9761h-5.9925c-5.6927.19761-11.286 1.3833-16.978.98806 1.9975-2.2725 4.7939-1.9761 7.3906-2.1737 14.482-1.2845 28.963-2.4701 43.545-3.6558.2996.29642.5992.59284.9987.88925z" stroke="#61a100"/><path class="st9" d="m1151.1 65.61c-6.0923 1.8773-12.484.79045-18.676.98806-6.0924.19761-12.184 0-18.277 0 .9987-.59284 1.9975-1.5809 2.9962-1.5809 11.286-.19761 22.671-1.2845 33.957.59283z" stroke="#64a500"/><path class="st9" d="m1192.1 64.622c-7.4904 1.9761-15.081.59284-22.571.98806-3.4955.19761-6.8911 0-10.387 0 .9987-.59283 1.9975-1.5809 2.9962-1.5809 9.9873-.29642 19.974-1.2845 29.962.59284z" stroke="#64a500"/><path class="st9" d="m1053.3 55.828c-2.2971-.29642-4.5942-.88925-5.9924-2.9642 2.3969.09881 4.5941.69164 5.9924 2.9642z" stroke="#61a100"/><path class="st9" d="m1089.3 64.622c-.6991-.69164-1.2983-1.2845-1.9975-1.9761.5992.69164 1.2984 1.3833 1.9975 1.9761z" stroke="#64a500"/><path class="st9" d="m1077.3 60.768c-.8989.09881-1.4981-.29642-1.9974-.98806.5992.29642 1.2983.59284 1.9974.98806z" stroke="#66a901"/><path class="st9" d="m1045.3 52.864c-.8989.09881-1.4981-.29642-1.9974-.98806.5993.39522 1.2983.69164 1.9974.98806z" stroke="#61a100"/></g><path class="st10" d="m179.85 17.59c4.1947 4.8415 3.2958 10.177 1.9975 15.71-1.6978-5.1379-2.0973-10.375-1.9975-15.71z"/><path class="st10" d="m1458.6 9.6856c2.1973 1.8773 2.5967 4.5451 2.7965 7.114.4993 7.114.7989 14.228 1.1985 21.342-1.0986-1.0869-1.7977-2.3713-1.8976-3.8534-.1-8.2009-2.5967-16.303-2.0974-24.603z" stroke="#69ac04" stroke-width=".99338"/><g stroke="#61a100" stroke-width=".99338"><path class="st12" d="m983.42 54.84c5.6928.39522 11.286-.79045 16.978-.98806-5.9923 3.557-12.384 3.4582-18.976 1.9761v-.98806h1.9975z"/><path class="st12" d="m1006.4 53.852c4.8937-1.3833 9.9874-1.2845 14.981-1.9761-4.5942 3.6558-9.6877 3.3594-14.981 1.9761z"/><path class="st12" d="m971.44 56.816c2.5967-1.0869 5.2933-.98806 7.9899-.98806-2.397 2.4701-5.1934 1.9761-7.9899.98806z"/></g></g></svg>
