<svg class="svg-inline--fa fa-check-circle fa-w-16" aria-hidden="true" data-icon="check-circle" data-prefix="fas" focusable="false" role="img" version="1.1" viewBox="0 0 17 20" xmlns="http://www.w3.org/2000/svg" width="17px" height="17px"><path d="m17 8.5c0 4.6944-3.8056 8.5-8.5 8.5s-8.5-3.8056-8.5-8.5 3.8056-8.5 8.5-8.5 8.5 3.8056 8.5 8.5zm-9.4832 4.5007 6.3065-6.3065c.21414-.21414.21414-.56138 0-.77552l-.77552-.77552c-.21414-.21418-.56138-.21418-.77556 0l-5.1432 5.1431-2.4012-2.4012c-.21415-.21414-.56138-.21414-.77556 0l-.77552.77552c-.21414.21414-.21414.56138 0 .77552l3.5645 3.5645c.21418.21418.56138.21418.77556 3.4e-5z" fill="#66a900" stroke-width=".034274"/></svg>
